<svg width="55" height="54" viewBox="0 0 55 54" fill="none" xmlns="http://www.w3.org/2000/svg">
<path d="M53.6 21.6H38.3V18.9C38.3 18.612 38.1622 18.3413 37.9292 18.1719L28.4 11.2419V8.1H38.3C38.797 8.1 39.2 7.69702 39.2 7.2V1.8C39.2 1.30297 38.797 0.9 38.3 0.9H28.4C28.4 0.402975 27.997 0 27.5 0C27.003 0 26.6 0.402975 26.6 0.9V11.2419L17.0708 18.1719C16.8378 18.3413 16.7 18.612 16.7 18.9V21.6H1.4C0.902975 21.6 0.5 22.003 0.5 22.5V53.1C0.5 53.597 0.902975 54 1.4 54H53.6C54.097 54 54.5 53.597 54.5 53.1V22.5C54.5 22.003 54.097 21.6 53.6 21.6ZM28.4 2.7H37.4V6.3H28.4V2.7ZM16.7 52.2H2.3V23.4H16.7V52.2ZM31.1 52.2H23.9V43.2H31.1V52.2ZM36.5 52.2H32.9V42.3C32.9 41.803 32.497 41.4 32 41.4H23C22.503 41.4 22.1 41.803 22.1 42.3V52.2H18.5V19.3581L27.5 12.8124L36.5 19.3581V52.2ZM52.7 52.2H38.3V23.4H52.7V52.2Z" fill="black"/>
</svg>
