<svg width="55" height="47" viewBox="0 0 55 47" fill="none" xmlns="http://www.w3.org/2000/svg">
<path d="M50.128 21.3081C49.9654 20.4607 49.2242 19.8479 48.3613 19.8474H46.6234L46.4956 19.0815C46.3681 18.3123 45.762 17.7113 44.9917 17.5902C44.8207 17.5632 44.6479 17.5452 44.4778 17.5218C44.7725 16.1459 44.5277 14.7093 43.7938 13.5087C44.1816 12.503 44.1092 11.3778 43.5958 10.43C43.0824 9.48217 42.1796 8.80686 41.1253 8.58213C40.4513 4.97492 37.3132 2.35283 33.6436 2.33073C33.5536 2.33073 33.4735 2.34243 33.388 2.34513C32.8017 1.42429 31.835 0.813151 30.7516 0.67841C29.6683 0.543669 28.5814 0.899387 27.7873 1.64853C26.787 0.998296 25.6198 0.651635 24.4267 0.650432C22.5044 0.658298 20.6926 1.55056 19.5145 3.06963C18.2064 2.68818 16.7958 2.92239 15.6811 3.70612C14.5665 4.48985 13.8688 5.738 13.7851 7.09803C12.4111 7.6756 11.5171 9.02038 11.5162 10.5108C11.519 10.7692 11.5492 11.0265 11.6062 11.2785C10.3911 13.1103 10.0736 15.3948 10.7431 17.4885C10.5019 17.5218 10.2553 17.5515 10.0231 17.5857C9.2488 17.7026 8.63731 18.3039 8.50752 19.0761L8.37972 19.8447H6.63732C5.77588 19.8453 5.03562 20.4562 4.87152 21.3018L0.930415 41.5356C0.776502 42.3281 0.985217 43.1478 1.49935 43.7701C2.01348 44.3924 2.77909 44.7521 3.58632 44.7504H22.3549C23.1001 45.9798 25.3645 46.5504 27.4993 46.5504C29.6116 46.5504 31.8544 45.9933 32.6212 44.7504H51.4123C52.2194 44.752 52.9848 44.3925 53.4989 43.7704C54.013 43.1483 54.2218 42.3288 54.0682 41.5365L50.128 21.3081ZM14.2378 12.1398C13.5071 11.7005 13.1583 10.8282 13.3847 10.0062C13.6111 9.18412 14.3572 8.61338 15.2098 8.61003C15.8066 8.60826 16.3682 8.89191 16.7209 9.37323C16.9126 9.63143 17.2274 9.76777 17.5468 9.73091C17.8662 9.69404 18.1417 9.48957 18.2695 9.19451C18.3973 8.89945 18.358 8.55863 18.1663 8.30043C17.5552 7.48363 16.6291 6.96113 15.6139 6.86043C15.8822 5.6 16.9937 4.69768 18.2824 4.69413C18.3922 4.6997 18.5016 4.71172 18.61 4.73013C18.5376 4.91465 18.4745 5.10268 18.421 5.29353C18.309 5.76995 18.5982 6.24855 19.0721 6.37093C19.5459 6.49331 20.0307 6.21461 20.1634 5.74353C20.2658 5.34797 20.423 4.96869 20.6305 4.61673C21.4289 3.27928 22.8691 2.45739 24.4267 2.45043C25.2744 2.45419 26.1027 2.70434 26.8108 3.17043C26.6759 3.54943 26.6045 3.94808 26.5993 4.35033C26.5993 4.84739 27.0023 5.25033 27.4993 5.25033C27.9964 5.25033 28.3993 4.84739 28.3993 4.35033C28.3993 3.30477 29.2469 2.45718 30.2925 2.45718C31.338 2.45718 32.1856 3.30477 32.1856 4.35033C32.1856 4.84739 32.5886 5.25033 33.0856 5.25033C33.5827 5.25033 33.9856 4.84739 33.9856 4.35033C33.9856 4.28103 33.9685 4.21533 33.9649 4.14603C36.5419 4.30503 38.7089 6.13685 39.2947 8.65143C38.8749 8.77366 38.4804 8.97028 38.1301 9.23193C37.8729 9.42486 37.7381 9.74036 37.7766 10.0596C37.815 10.3788 38.0209 10.6533 38.3166 10.7796C38.6123 10.9059 38.9529 10.8649 39.2101 10.6719C39.9293 10.1395 40.9228 10.1819 41.5939 10.7738C42.2651 11.3657 42.4314 12.3461 41.9929 13.1262C41.797 13.4707 41.4993 13.7461 41.1406 13.9146C40.7645 14.0967 40.5632 14.5138 40.6546 14.9216C40.7461 15.3293 41.1061 15.6205 41.524 15.6246C41.656 15.6248 41.7863 15.5956 41.9056 15.5391C42.1441 15.4235 42.3695 15.2826 42.5779 15.1188C43.0431 16.4414 42.7514 17.9124 41.8165 18.9573L41.7949 18.9798C40.6224 20.25 38.752 20.5933 37.2049 19.8222C37.0534 19.7422 36.9078 19.6514 36.7693 19.5504C37.4322 18.6211 37.5238 17.4003 37.0069 16.3824C36.8622 16.0951 36.5753 15.9069 36.2541 15.8885C35.9329 15.8702 35.6264 16.0246 35.45 16.2935C35.2735 16.5625 35.2539 16.9051 35.3986 17.1924C35.6946 17.7873 35.51 18.5092 34.9648 18.8889C34.6447 19.1021 34.2492 19.1695 33.8765 19.0744C33.5038 18.9794 33.189 18.7308 33.01 18.3903C32.8661 18.1027 32.5797 17.9137 32.2587 17.8945C31.9377 17.8753 31.6308 18.0288 31.4536 18.2973C31.2765 18.5657 31.256 18.9082 31.3999 19.1958C31.9277 20.2613 33.0153 20.9342 34.2043 20.931C34.5914 20.9284 34.9746 20.853 35.3338 20.7087C35.6553 20.9902 36.0094 21.2319 36.3886 21.4287C37.6713 22.0936 39.1629 22.2315 40.5457 21.813C39.6563 23.0274 38.3252 23.8436 36.8395 24.0855C36.3773 24.1608 36.05 24.5779 36.0869 25.0447C36.1238 25.5116 36.5125 25.8721 36.9808 25.8738C37.0287 25.8738 37.0766 25.8702 37.1239 25.863C37.672 25.7682 38.2075 25.6118 38.7205 25.3968C38.9978 25.887 39.2228 26.405 39.3919 26.9421C39.4229 27.0359 39.4387 27.1341 39.4387 27.2328C39.4385 27.6218 39.2062 27.9731 38.8483 28.1256C38.4343 28.2858 37.9643 28.1594 37.6864 27.8133C36.9894 26.9948 36.0767 26.3883 35.0521 26.0628C33.1072 25.4112 32.3566 24.8289 32.038 24.1953C32.505 24.1371 32.9664 24.0407 33.4177 23.9073C33.7251 23.8128 33.9587 23.5615 34.0305 23.248C34.1024 22.9345 34.0015 22.6065 33.7659 22.3876C33.5304 22.1686 33.1959 22.092 32.8885 22.1865C32.3835 22.3415 31.8622 22.4372 31.3351 22.4718C30.3196 22.5512 29.2994 22.3973 28.3525 22.0218C27.997 21.8832 27.5927 21.9838 27.3436 22.2729C26.0332 23.7781 23.7905 24.034 22.1748 22.8626C20.5591 21.6911 20.105 19.48 21.1282 17.7666C21.294 17.4899 21.2995 17.1459 21.1428 16.864C20.986 16.5821 20.6908 16.4052 20.3683 16.4C20.0458 16.3948 19.7451 16.562 19.5793 16.8387C19.3646 17.2042 19.1919 17.5928 19.0645 17.997C18.3558 17.9597 17.7969 17.3801 17.7856 16.6704V16.6479C17.7852 16.4105 17.6898 16.183 17.5208 16.0162C17.3518 15.8494 17.1231 15.757 16.8856 15.7596C16.3864 15.7646 15.9846 16.1712 15.9856 16.6704C15.9896 18.2666 17.1933 19.6043 18.7801 19.7763C18.7833 20.078 18.8107 20.379 18.862 20.6763C16.8525 21.1112 14.7683 20.3888 13.4588 18.8038C12.1493 17.2187 11.8332 15.0356 12.6394 13.1442C12.8408 13.3479 13.0655 13.5271 13.309 13.6779C13.7342 13.927 14.2806 13.7879 14.5348 13.3658C14.7891 12.9437 14.6567 12.3957 14.2378 12.1362V12.1398ZM10.2778 19.3695C10.6927 19.3083 11.1211 19.2543 11.5468 19.1985C13.2108 21.8577 16.3934 23.1489 19.4398 22.4007C20.2584 23.9543 21.7541 25.0377 23.4854 25.3311C25.2167 25.6246 26.9859 25.0945 28.2706 23.8974C28.8822 24.0799 29.5122 24.194 30.1489 24.2376C30.5836 25.8864 31.84 26.8854 34.4797 27.7701C35.1913 27.9932 35.8261 28.4113 36.3121 28.977C36.8524 29.6195 37.6471 29.9928 38.4865 29.9985C38.8536 29.9984 39.217 29.9243 39.5548 29.7807C40.575 29.3447 41.2368 28.3423 41.2369 27.2328C41.2377 26.9435 41.1915 26.6559 41.1001 26.3814C40.8977 25.7455 40.6311 25.1319 40.3045 24.5499C41.8349 23.4498 42.9011 21.8193 43.2952 19.9761C43.4869 19.7484 43.6602 19.5058 43.8136 19.2507C44.1151 19.2894 44.4166 19.3236 44.7199 19.374L47.9689 38.9166C41.6181 36.796 34.7502 36.796 28.3993 38.9166V27.6504C28.3993 27.1534 27.9964 26.7504 27.4993 26.7504C27.0023 26.7504 26.5993 27.1534 26.5993 27.6504V38.9202C20.2492 36.7976 13.3814 36.7951 7.02972 38.913L10.2778 19.3695ZM2.88522 42.6192C2.71516 42.4138 2.64583 42.1431 2.69622 41.8812L6.63732 21.6474H8.07732L5.25312 38.6205C5.15378 39.2383 5.38126 39.8635 5.85437 40.273C6.32749 40.6825 6.97885 40.818 7.57602 40.6311C12.3739 39.0767 17.4854 38.7524 22.4413 39.6879L22.1731 42.9504H3.58632C3.3148 42.9506 3.05751 42.8291 2.88522 42.6192ZM27.4993 44.7504C25.3312 44.7504 24.0874 44.1096 23.9047 43.8243L24.2143 40.0893C25.2039 40.3357 26.1724 40.6605 27.1105 41.0604C27.2318 41.1189 27.3646 41.1496 27.4993 41.1504C27.6343 41.1502 27.7676 41.1195 27.889 41.0604C28.8266 40.6581 29.7947 40.3313 30.7843 40.083L31.0939 43.8234C30.9112 44.1096 29.6674 44.7504 27.4993 44.7504ZM52.1134 42.6192C51.9411 42.8291 51.6838 42.9506 51.4123 42.9504H32.8282L32.5582 39.6816C37.5168 38.748 42.6306 39.0751 47.4298 40.6329C48.0268 40.8174 48.6768 40.68 49.1481 40.2697C49.6194 39.8594 49.845 39.2346 49.7446 38.6178L46.9231 21.6483H48.3631L52.3051 41.8803C52.355 42.1429 52.2847 42.414 52.1134 42.6192Z" fill="black"/>
</svg>
